<svg xmlns="http://www.w3.org/2000/svg" version="1.1" xmlns:xlink="http://www.w3.org/1999/xlink" xmlns:svgjs="http://svgjs.dev/svgjs" width="2000" height="449" viewBox="0 0 2000 449"><g transform="matrix(1,0,0,1,-1.2121212121212466,-1.3141663667333887)"><svg viewBox="0 0 396 89" data-background-color="#ffffff" preserveAspectRatio="xMidYMid meet" height="449" width="2000" xmlns="http://www.w3.org/2000/svg" xmlns:xlink="http://www.w3.org/1999/xlink"><g id="tight-bounds" transform="matrix(1,0,0,1,0.2400000000000091,0.260491774252273)"><svg viewBox="0 0 395.52 88.25488623106614" height="88.25488623106614" width="395.52"><g><svg viewBox="0 0 542.6133237518407 121.07675251612903" height="88.25488623106614" width="395.52"><g transform="matrix(1,0,0,1,0,16.73347303225806)"><svg viewBox="0 0 395.52 87.60980645161291" height="87.60980645161291" width="395.52"><g id="textblocktransform"><svg viewBox="0 0 395.52 87.60980645161291" height="87.60980645161291" width="395.52" id="textblock"><g><svg viewBox="0 0 395.52 87.60980645161291" height="87.60980645161291" width="395.52"><g transform="matrix(1,0,0,1,0,0)"><svg width="395.52" viewBox="4.2 -35.45 162.74 36.050000000000004" height="87.60980645161291" data-palette-color="#000000"><g class="wordmark-text-0" data-fill-palette-color="primary" id="text-0"><path d="M20.95 0L4.2 0 4.2-34.85 10.55-34.85 10.55-5.5 20.95-5.5 20.95 0ZM32.7 0L26.3 0 26.3-34.85 32.7-34.85 32.7 0ZM47.35 0L40.95 0 40.95-34.85 59.15-34.85 59.15-29.35 47.35-29.35 47.35-20.2 57.65-20.2 57.65-14.6 47.35-14.6 47.35 0ZM75.94 0.6L75.94 0.6Q73.22 0.6 70.69-0.51 68.17-1.63 66.16-3.89 64.14-6.15 62.97-9.65 61.79-13.15 61.79-17.9L61.79-17.9Q61.79-23.6 63.78-27.51 65.77-31.43 69.11-33.44 72.44-35.45 76.49-35.45L76.49-35.45Q79.24-35.45 80.98-34.93 82.72-34.4 83.76-33.68 84.79-32.95 85.44-32.35L85.44-32.35 82.64-27.1Q81.57-28.28 80.42-28.99 79.27-29.7 76.74-29.7L76.74-29.7Q74.19-29.7 72.41-28.23 70.62-26.75 69.68-24.16 68.74-21.58 68.74-18.25L68.74-18.25Q68.74-11.73 70.93-8.41 73.12-5.1 76.19-5.1L76.19-5.1Q78.57-5.1 80.24-5.78 81.92-6.45 82.74-7.3L82.74-7.3 85.49-2.35Q84.79-1.78 83.63-1.09 82.47-0.4 80.61 0.1 78.74 0.6 75.94 0.6ZM92.44 0L85.44 0 100.19-35.45 100.69-35.45 115.49 0 108.69 0 106.74-5.05 94.29-5.05 92.44 0ZM100.39-22.2L99.59-19.4 96.09-9.9 104.89-9.9 101.24-19.4 100.39-22.2ZM132.89-12.1L141.89 0 134.14 0 125.19-12.6 125.19 0 118.84 0 118.84-34.85 128.54-34.85Q132.09-34.85 134.89-33.81 137.69-32.77 139.31-30.35 140.94-27.93 140.94-23.75L140.94-23.75Q140.94-21.48 140.18-19.06 139.41-16.65 137.65-14.75 135.89-12.85 132.89-12.1L132.89-12.1ZM125.19-29.85L125.19-15.75 127.84-15.75Q130.04-15.75 131.53-16.79 133.01-17.82 133.78-19.51 134.54-21.2 134.54-23.15L134.54-23.15Q134.54-26.53 132.99-28.19 131.44-29.85 127.69-29.85L127.69-29.85 125.19-29.85ZM158.89 0L152.44 0 152.44-29.2 144.39-29.2 144.39-34.85 166.94-34.85 166.94-29.2 158.89-29.2 158.89 0Z" fill="#000000" data-fill-palette-color="primary"></path></g></svg></g></svg></g></svg></g></svg></g><g transform="matrix(1,0,0,1,416.202572667871,0)"><svg viewBox="0 0 126.41075108396977 121.07675251612903" height="121.07675251612903" width="126.41075108396977"><g><svg xmlns="http://www.w3.org/2000/svg" xmlns:xlink="http://www.w3.org/1999/xlink" version="1.1" x="0" y="0" viewBox="0.572 1.603 48.855 46.793525815270584" enable-background="new 0 0 50 50" xml:space="preserve" height="121.07675251612903" width="126.41075108396977" class="icon-icon-0" data-fill-palette-color="accent" id="icon-0"><g fill="#000000" data-fill-palette-color="accent"><g fill="#000000" data-fill-palette-color="accent"><g fill="#000000" data-fill-palette-color="accent"><line fill="#000000" x1="42.187" y1="30.881" x2="16.181" y2="39.004" data-fill-palette-color="accent"></line><polygon fill="#000000" points="41.73,29.426 15.726,37.543 16.637,40.461 42.643,32.338    " data-fill-palette-color="accent"></polygon></g><g fill="#000000" data-fill-palette-color="accent"><path fill="#000000" d="M18.572 42.535A2.23 2.23 0 0 1 18.059 44.199 2.25 2.25 0 0 1 16.52 45.013 2.277 2.277 0 0 1 14.551 41.29 2.25 2.25 0 0 1 16.093 40.477 2.24 2.24 0 0 1 17.759 40.991C18.229 41.379 18.515 41.926 18.572 42.535M15.808 37.434A5.32 5.32 0 0 0 12.199 39.344 5.3 5.3 0 0 0 10.998 43.244 5.34 5.34 0 0 0 16.805 48.055 5.28 5.28 0 0 0 20.41 46.147 5.28 5.28 0 0 0 21.614 42.249 5.3 5.3 0 0 0 19.707 38.642 5.3 5.3 0 0 0 15.808 37.434" data-fill-palette-color="accent"></path></g><g fill="#000000" data-fill-palette-color="accent"><line fill="#000000" x1="13.436" y1="30.992" x2="39.554" y2="39.439" data-fill-palette-color="accent"></line><rect x="12.773" y="33.689" transform="matrix(-0.9514 -0.3078 0.3078 -0.9514 40.8641 76.8801)" fill="#000000" width="27.446" height="3.055" data-fill-palette-color="accent"></rect></g><g fill="#000000" data-fill-palette-color="accent"><path fill="#000000" d="M32.707 42.547A5.3 5.3 0 0 0 33.893 46.449 5.3 5.3 0 0 0 37.492 48.371 5.337 5.337 0 0 0 43.32 43.59 5.343 5.343 0 0 0 38.534 37.76 5.3 5.3 0 0 0 34.631 38.948 5.28 5.28 0 0 0 32.707 42.547M38.236 40.795A2.287 2.287 0 0 1 40.28 43.289 2.29 2.29 0 0 1 37.789 45.338 2.3 2.3 0 0 1 36.251 44.514 2.27 2.27 0 0 1 35.746 42.84 2.27 2.27 0 0 1 36.568 41.303 2.27 2.27 0 0 1 38.236 40.795" data-fill-palette-color="accent"></path></g><g fill="#000000" data-fill-palette-color="accent"><polygon fill="#000000" points="11.115,19.867 5.497,2.681 5.155,1.64 4.058,1.63 0.6,1.603 0.572,4.656 4.033,4.685 2.594,3.63      8.214,20.812    " data-fill-palette-color="accent"></polygon></g><g fill="#000000" data-fill-palette-color="accent"><polygon fill="#000000" points="17.158,26.744 37.898,26.744 40.767,19.382 15.07,19.474    " data-fill-palette-color="accent"></polygon><path fill="#000000" d="M5.756 13.544L12.45 32.75 42.405 32.527 49.427 13.544zM40.365 28.826L39.986 29.799H14.86L14.542 28.695 11.579 18.38 11.021 16.441 13.042 16.433 42.996 16.324 45.239 16.314 44.424 18.402z" data-fill-palette-color="accent"></path></g></g><g fill="#000000" data-fill-palette-color="accent"><path fill-rule="evenodd" clip-rule="evenodd" fill="#000000" d="M32.577 11.763H36.445L32.577 8.57 28.711 5.379 24.847 8.57 20.982 11.763z" data-fill-palette-color="accent"></path></g></g></svg></g></svg></g></svg></g><defs></defs></svg><rect width="395.52" height="88.25488623106614" fill="none" stroke="none" visibility="hidden"></rect></g></svg></g></svg>